<?xml version="1.0" encoding="UTF-8"?>
<svg xmlns="http://www.w3.org/2000/svg" xmlns:xlink="http://www.w3.org/1999/xlink" width="1024px" height="1024px" viewBox="0 0 1024 1024" version="1.1">
<g id="surface1">
<path style=" stroke:none;fill-rule:nonzero;fill:rgb(0%,0%,0%);fill-opacity:1;" d="M 492.265625 136.09375 C 433.8125 140.046875 385.492188 151.433594 336.535156 172.707031 C 270.1875 201.601562 213.972656 245.175781 173.332031 299.292969 C 128.746094 358.683594 105.066406 425.410156 103.039062 497.222656 C 99.519531 622.683594 168 739.765625 287.574219 812.421875 C 304.960938 822.964844 344.320312 842.070312 354.132812 844.707031 C 355.625 845.082031 359.253906 846.398438 362.132812 847.53125 C 380.480469 854.777344 414.078125 863.625 438.398438 867.671875 C 478.613281 874.351562 527.039062 876.046875 564.800781 872 C 651.199219 862.871094 725.652344 833.695312 789.332031 784.1875 C 860.90625 728.566406 907.414062 657.601562 925.226562 576.46875 C 933.441406 538.730469 934.828125 486.398438 928.425781 450.351562 C 916.585938 383.152344 887.574219 324.707031 839.894531 272 C 819.308594 249.222656 786.238281 221.457031 759.464844 204.613281 C 701.332031 167.71875 635.945312 145.316406 565.332031 137.789062 C 551.679688 136.375 504.425781 135.246094 492.265625 136.09375 Z M 560 204.707031 C 658.347656 215.71875 745.386719 263.90625 800.535156 337.882812 C 815.464844 357.835938 826.988281 377.695312 835.308594 397.457031 C 859.945312 455.8125 864 519.058594 846.933594 578.824219 C 829.546875 639.433594 792.105469 692.894531 737.601562 734.683594 C 727.679688 742.398438 708.375 755.105469 701.761719 758.304688 C 698.878906 759.8125 696.535156 761.222656 696.535156 761.601562 C 696.535156 762.070312 696 762.351562 695.253906 762.351562 C 694.613281 762.351562 693.226562 762.917969 692.375 763.671875 C 687.679688 767.339844 658.773438 779.859375 640.320312 786.257812 C 603.414062 799.058594 569.066406 805.082031 527.464844 806.210938 C 493.867188 807.152344 469.972656 804.988281 437.867188 798.117188 C 359.039062 781.363281 290.453125 740.234375 241.601562 680.46875 C 217.066406 650.542969 198.292969 614.210938 188.160156 577.410156 C 171.519531 516.234375 176.320312 451.671875 202.027344 393.507812 C 232.425781 324.894531 292.375 266.542969 365.867188 234.351562 C 403.519531 217.789062 444.160156 207.339844 482.453125 204.234375 C 489.066406 203.765625 496.320312 203.105469 498.667969 202.917969 C 507.625 202.070312 547.199219 203.292969 560 204.707031 Z M 560 204.707031 "/>
</g>
</svg>
